<svg xmlns="http://www.w3.org/2000/svg" version="1.1" viewBox="139.21 139.21 473.58 473.58">
 <defs>
  <clipPath id="b">
   <path d="m139.21 139.21h473.58v464.79h-473.58z"/>
  </clipPath>
  <clipPath id="a">
   <path d="m139.21 139.21h473.58v473.58h-473.58z"/>
  </clipPath>
 </defs>
 <path transform="matrix(4.7358 0 0 4.7358 139.21 139.21)" d="m75.241 47.106h0.098155l-1.0236 19.392-12.189-11.165h-24.254l-12.188 11.165-1.0236-19.392h0.098155c-0.070935-0.4718-0.10723-0.95268-0.10723-1.4509 0-2.6708 1.0327-5.0933 2.698-6.8379 1.6744-1.7453 3.9798-2.8308 6.5261-2.8308h32.248c5.0933 0 9.2241 4.3271 9.2241 9.6687-8.24e-4 0.49737-0.035467 0.97908-0.10723 1.4509zm0 0" fill="none" stroke="#9046ff" stroke-linecap="round" stroke-linejoin="round" stroke-miterlimit="10" stroke-width="4"/>
 <path transform="matrix(4.7358 0 0 4.7358 139.21 139.21)" d="m33.53 49.252v-5.9784" fill="none" stroke="#9046ff" stroke-linecap="square" stroke-linejoin="round" stroke-miterlimit="10" stroke-width="4"/>
 <path transform="matrix(4.7358 0 0 4.7358 139.21 139.21)" d="m30.541 46.263h5.9776" fill="none" stroke="#9046ff" stroke-linecap="square" stroke-linejoin="round" stroke-miterlimit="10" stroke-width="4"/>
 <path transform="matrix(4.7358 0 0 4.7358 139.21 139.21)" d="m66.167 42.871c0 0.35798-0.29034 0.64832-0.64832 0.64832-0.35798 0-0.64832-0.29034-0.64832-0.64832 0-0.35798 0.29034-0.64832 0.64832-0.64832 0.35798 8.25e-4 0.64832 0.29034 0.64832 0.64832zm0 0" fill="none" stroke="#9046ff" stroke-linecap="square" stroke-linejoin="round" stroke-miterlimit="10" stroke-width="3"/>
 <path transform="matrix(4.7358 0 0 4.7358 139.21 139.21)" d="m66.167 49.535c0 0.35798-0.29034 0.64832-0.64832 0.64832-0.35798 0-0.64832-0.29034-0.64832-0.64832 0-0.35798 0.29034-0.64832 0.64832-0.64832 0.35798 8.25e-4 0.64832 0.29117 0.64832 0.64832zm0 0" fill="none" stroke="#9046ff" stroke-linecap="square" stroke-linejoin="round" stroke-miterlimit="10" stroke-width="3"/>
 <path transform="matrix(4.7358 0 0 4.7358 139.21 139.21)" d="m69.5 46.203c0 0.35798-0.29034 0.64832-0.64832 0.64832s-0.64832-0.29034-0.64832-0.64832 0.29034-0.64832 0.64832-0.64832c0.35798 0.001649 0.64832 0.29117 0.64832 0.64832zm0 0" fill="none" stroke="#9046ff" stroke-linecap="square" stroke-linejoin="round" stroke-miterlimit="10" stroke-width="3"/>
 <path transform="matrix(4.7358 0 0 4.7358 139.21 139.21)" d="m62.835 46.203c0 0.35798-0.29034 0.64832-0.64832 0.64832s-0.64832-0.29034-0.64832-0.64832 0.29034-0.64832 0.64832-0.64832c0.3588 0.001649 0.64832 0.29117 0.64832 0.64832zm0 0" fill="none" stroke="#9046ff" stroke-linecap="square" stroke-linejoin="round" stroke-miterlimit="10" stroke-width="3"/>
 <g clip-path="url(#b)">
  <path transform="matrix(4.7358 0 0 4.7358 139.21 139.21)" d="m52.267 41.018c0 0.30684-0.14187 0.55511-0.31674 0.55511h-3.8998c-0.17486 0-0.31674-0.2491-0.31674-0.55511 0-0.30684 0.14187-0.55511 0.31674-0.55511h3.8998c0.17486 0 0.31674 0.2491 0.31674 0.55511zm0 0" fill="none" stroke="#9046ff" stroke-linecap="round" stroke-miterlimit="10" stroke-width="4"/>
 </g>
 <path transform="matrix(4.7358 0 0 4.7358 139.21 139.21)" d="m55.852 49.749h2.6741" fill="none" stroke="#9046ff" stroke-linecap="round" stroke-miterlimit="10" stroke-width="3"/>
 <path transform="matrix(4.7358 0 0 4.7358 139.21 139.21)" d="m41.474 49.135 1.6216 0.47593-1.6216 0.4751zm0 0" fill="none" stroke="#9046ff" stroke-linecap="round" stroke-miterlimit="10" stroke-width="2"/>
 <g clip-path="url(#a)" fill="none" stroke="#9046ff" stroke-linecap="round" stroke-miterlimit="10" stroke-width="4">
  <path transform="matrix(4.7358 0 0 4.7358 139.21 139.21)" d="m92.5 50c0 23.472-19.028 42.5-42.5 42.5-23.471 0-42.499-19.028-42.499-42.5 0-23.471 19.028-42.499 42.499-42.499 23.472 0 42.5 19.028 42.5 42.499"/>
  <path transform="matrix(4.7358 0 0 4.7358 139.21 139.21)" d="m20.198 79.802 59.717-59.717"/>
 </g>
</svg>